<svg>
  <defs>
		<g id="upset">
		    <path d="M0 0h24v24H0V0z" fill="none"/>
		    <path d="M11.99 2C6.47 2 2 6.48 2 12s4.47 10 9.99 10C17.52 22 22 17.52 22 12S17.52 2 11.99 2zM12 20c-4.42 0-8-3.58-8-8s3.58-8 8-8 8 3.58 8 8-3.58 8-8 8zm3.5-9c.83 0 1.5-.67 1.5-1.5S16.33 8 15.5 8 14 8.67 14 9.5s.67 1.5 1.5 1.5zm-7 0c.83 0 1.5-.67 1.5-1.5S9.33 8 8.5 8 7 8.67 7 9.5 7.67 11 8.5 11zm3.5 3c-2.33 0-4.31 1.46-5.11 3.5h10.22c-.8-2.04-2.78-3.5-5.11-3.5z"/>
		</g>
		<g id="sad">
			<path d="M0 0h24v24H0z" fill="none"/>
		    <circle cx="15.5" cy="9.5" r="1.5"/>
		    <circle cx="8.5" cy="9.5" r="1.5"/>
		    <path d="M11.99 2C6.47 2 2 6.48 2 12s4.47 10 9.99 10C17.52 22 22 17.52 22 12S17.52 2 11.99 2zM12 20c-4.42 0-8-3.58-8-8s3.58-8 8-8 8 3.58 8 8-3.58 8-8 8zm0-6c-2.33 0-4.32 1.45-5.12 3.5h1.67c.69-1.19 1.97-2 3.45-2s2.75.81 3.45 2h1.67c-.8-2.05-2.79-3.5-5.12-3.5z"/>
					
		</g>
		<g id="neutral">
			<path d="M9 14h6v1.5H9z"/>
		    <circle cx="15.5" cy="9.5" r="1.5"/>
		    <circle cx="8.5" cy="9.5" r="1.5"/>
		    <path d="M11.99 2C6.47 2 2 6.48 2 12s4.47 10 9.99 10C17.52 22 22 17.52 22 12S17.52 2 11.99 2zM12 20c-4.42 0-8-3.58-8-8s3.58-8 8-8 8 3.58 8 8-3.58 8-8 8z"/>
		    <path d="M0 0h24v24H0z" fill="none"/>
		</g>
		<g id="happy">
			<path d="M0 0h24v24H0z" fill="none"/>
		    <circle cx="15.5" cy="9.5" r="1.5"/>
		    <circle cx="8.5" cy="9.5" r="1.5"/>
		    <path d="M11.99 2C6.47 2 2 6.48 2 12s4.47 10 9.99 10C17.52 22 22 17.52 22 12S17.52 2 11.99 2zM12 20c-4.42 0-8-3.58-8-8s3.58-8 8-8 8 3.58 8 8-3.58 8-8 8zm0-4c-1.48 0-2.75-.81-3.45-2H6.88c.8 2.05 2.79 3.5 5.12 3.5s4.32-1.45 5.12-3.5h-1.67c-.7 1.19-1.97 2-3.45 2z"/>	
		</g>
		<g id="glad">
			<path d="M11.99 2C6.47 2 2 6.47 2 12s4.47 10 9.99 10S22 17.53 22 12 17.52 2 11.99 2zM12 20c-4.42 0-8-3.58-8-8s3.58-8 8-8 8 3.58 8 8-3.58 8-8 8zm1-10.06L14.06 11l1.06-1.06L16.18 11l1.06-1.06-2.12-2.12zm-4.12 0L9.94 11 11 9.94 8.88 7.82 6.76 9.94 7.82 11zM12 17.5c2.33 0 4.31-1.46 5.11-3.5H6.89c.8 2.04 2.78 3.5 5.11 3.5z"/>
   			<path d="M0 0h24v24H0z" fill="none"/>
		</g>
		<g id="logout">
			<path d="M0 0h24v24H0z" fill="none"/>
   			<path d="M10.09 15.59L11.5 17l5-5-5-5-1.41 1.41L12.67 11H3v2h9.67l-2.58 2.59zM19 3H5c-1.11 0-2 .9-2 2v4h2V5h14v14H5v-4H3v4c0 1.1.89 2 2 2h14c1.1 0 2-.9 2-2V5c0-1.1-.9-2-2-2z"/>
		</g>
		<g id="key">
			<path d="M232.969,377.5l-33.938-33.938L315.828,226.75c42.438,22.875,96.25,16.875,132.125-18.938
				c43.688-43.75,43.688-114.688,0-158.375c-43.75-43.75-114.688-43.75-158.438,0c-35.813,35.813-41.781,89.688-18.922,132.063
				l-229.953,230c-12.453,12.438-12.453,32.813,0,45.25c12.438,12.438,32.813,12.438,45.25,0l33.938,33.938
				c6.25,6.25,16.375,6.25,22.625,0l22.625-22.625c6.266-6.25,6.266-16.375,0-22.625L131.141,411.5l22.625-22.688l33.953,34
				c6.25,6.25,16.375,6.25,22.625,0l22.625-22.625C239.219,393.875,239.219,383.813,232.969,377.5z M334.766,94.688
				c18.75-18.75,49.188-18.75,67.938,0c18.688,18.688,18.688,49.188,0,67.875c-18.75,18.688-49.188,18.688-67.938,0
				C316.078,143.875,316.078,113.375,334.766,94.688z"/>
		</g>
		<g id="edit">
			<path d="M3 17.25V21h3.75L17.81 9.94l-3.75-3.75L3 17.25zM20.71 7.04c.39-.39.39-1.02 0-1.41l-2.34-2.34c-.39-.39-1.02-.39-1.41 0l-1.83 1.83 3.75 3.75 1.83-1.83z"/>
    		<path d="M0 0h24v24H0z" fill="none"/>
		</g>
		<g id="delete_forever">
			<path d="M0 0h24v24H0V0z" fill="none"/>
		    <path d="M6 19c0 1.1.9 2 2 2h8c1.1 0 2-.9 2-2V7H6v12zm2.46-7.12l1.41-1.41L12 12.59l2.12-2.12 1.41 1.41L13.41 14l2.12 2.12-1.41 1.41L12 15.41l-2.12 2.12-1.41-1.41L10.59 14l-2.13-2.12zM15.5 4l-1-1h-5l-1 1H5v2h14V4z"/>
		    <path d="M0 0h24v24H0z" fill="none"/>
		</g>
		<g id="arrow_back">
			<path d="M0 0h24v24H0z" fill="none"/>
    		<path d="M20 11H7.83l5.59-5.59L12 4l-8 8 8 8 1.41-1.41L7.83 13H20v-2z"/>
		</g>
		<g id="close">
			<path d="M19 6.41L17.59 5 12 10.59 6.41 5 5 6.41 10.59 12 5 17.59 6.41 19 12 13.41 17.59 19 19 17.59 13.41 12z"/>
   			<path d="M0 0h24v24H0z" fill="none"/>
		</g>
		<g id="thumbs_up">
			<path d="M0 0h24v24H0z" fill="none"/>
    		<path d="M1 21h4V9H1v12zm22-11c0-1.1-.9-2-2-2h-6.31l.95-4.57.03-.32c0-.41-.17-.79-.44-1.06L14.17 1 7.59 7.59C7.22 7.95 7 8.45 7 9v10c0 1.1.9 2 2 2h9c.83 0 1.54-.5 1.84-1.22l3.02-7.05c.09-.23.14-.47.14-.73v-1.91l-.01-.01L23 10z"/>
		</g>
		<g id="download">
			<path d="M19 9h-4V3H9v6H5l7 7 7-7zM5 18v2h14v-2H5z"/>
		    <path d="M0 0h24v24H0z" fill="none"/>
    	</g>
    	<g id="date_range">
    		 <path d="M9 11H7v2h2v-2zm4 0h-2v2h2v-2zm4 0h-2v2h2v-2zm2-7h-1V2h-2v2H8V2H6v2H5c-1.11 0-1.99.9-1.99 2L3 20c0 1.1.89 2 2 2h14c1.1 0 2-.9 2-2V6c0-1.1-.9-2-2-2zm0 16H5V9h14v11z"/>
    		 <path d="M0 0h24v24H0z" fill="none"/>
    	</g>
    	<g id="clock">
    		<path d="M11.99 2C6.47 2 2 6.48 2 12s4.47 10 9.99 10C17.52 22 22 17.52 22 12S17.52 2 11.99 2zM12 20c-4.42 0-8-3.58-8-8s3.58-8 8-8 8 3.58 8 8-3.58 8-8 8z"/>
    		<path d="M0 0h24v24H0z" fill="none"/>
    		<path d="M12.5 7H11v6l5.25 3.15.75-1.23-4.5-2.67z"/>
    	</g>
    	<g id="star_fill">
    		<path d="M12 17.27L18.18 21l-1.64-7.03L22 9.24l-7.19-.61L12 2 9.19 8.63 2 9.24l5.46 4.73L5.82 21z"/>
    		<path d="M0 0h24v24H0z" fill="none"/>
    	</g>
    	<g id="start_border">
	    	<path d="M22 9.24l-7.19-.62L12 2 9.19 8.63 2 9.24l5.46 4.73L5.82 21 12 17.27 18.18 21l-1.63-7.03L22 9.24zM12 15.4l-3.76 2.27 1-4.28-3.32-2.88 4.38-.38L12 6.1l1.71 4.04 4.38.38-3.32 2.88 1 4.28L12 15.4z"/>
	    	<path d="M0 0h24v24H0z" fill="none"/>
    	</g>
    	<g id="visibility_off">
    		<path d="M0 0h24v24H0zm0 0h24v24H0zm0 0h24v24H0zm0 0h24v24H0z" fill="none"/>
    		<path d="M12 7c2.76 0 5 2.24 5 5 0 .65-.13 1.26-.36 1.83l2.92 2.92c1.51-1.26 2.7-2.89 3.43-4.75-1.73-4.39-6-7.5-11-7.5-1.4 0-2.74.25-3.98.7l2.16 2.16C10.74 7.13 11.35 7 12 7zM2 4.27l2.28 2.28.46.46C3.08 8.3 1.78 10.02 1 12c1.73 4.39 6 7.5 11 7.5 1.55 0 3.03-.3 4.38-.84l.42.42L19.73 22 21 20.73 3.27 3 2 4.27zM7.53 9.8l1.55 1.55c-.05.21-.08.43-.08.65 0 1.66 1.34 3 3 3 .22 0 .44-.03.65-.08l1.55 1.55c-.67.33-1.41.53-2.2.53-2.76 0-5-2.24-5-5 0-.79.2-1.53.53-2.2zm4.31-.78l3.15 3.15.02-.16c0-1.66-1.34-3-3-3l-.17.01z"/>
    	</g>
    	<g id="visibility_on">
    		<path d="M0 0h24v24H0z" fill="none"/>
    		<path d="M12 4.5C7 4.5 2.73 7.61 1 12c1.73 4.39 6 7.5 11 7.5s9.27-3.11 11-7.5c-1.73-4.39-6-7.5-11-7.5zM12 17c-2.76 0-5-2.24-5-5s2.24-5 5-5 5 2.24 5 5-2.24 5-5 5zm0-8c-1.66 0-3 1.34-3 3s1.34 3 3 3 3-1.34 3-3-1.34-3-3-3z"/>
    	</g>
	</defs>
</svg>