<?xml version="1.0" encoding="utf-8"?>
<!-- Designed by Vexels.com - 2017 All Rights Reserved - https://vexels.com/terms-and-conditions/  -->

<svg version="1.1" id="Layer_1" xmlns="http://www.w3.org/2000/svg" xmlns:xlink="http://www.w3.org/1999/xlink" x="0px" y="0px"
	 width="1200" height="1200" viewBox="0 0 1200 1200" xml:space="preserve">
<path d="M1069.675,519.356l-453.827-1.083c-14.469-0.307-13.848-5.229-13.848-5.229l-2.786-49.841
	c-1.536-27.691-29.845-13.222-29.845-13.222l-46.445,39.71c-6.127,4.771-11.364,4.648-15.278,3.038
	c-16.928-46.008-44.77-85.697-82.286-110.693c-106.306-70.82-252.841-54.665-330.119,61.331
	c-77.278,116-52.259,288.584,49.955,365.193c112.021,83.961,260.541,65.122,337.828-50.874
	c12.385-18.59,22.033-39.064,29.101-60.608l72.712,41.805c16.307,9.534,19.084-4.616,19.084-4.616l2.746-82.152l79.378,0.898
	l45.237,46.131l64.288-62.479l62.484,56.29l38.137-1.254l59.672-57.548l49.861,37.21l46.764-2.165L1150,580.87
	C1146.593,547.941,1069.675,519.356,1069.675,519.356z M141.453,646.11c-30.073-20.04-38.214-60.673-18.177-90.754
	c20.045-30.086,60.677-38.227,90.759-18.186c30.077,20.036,38.223,60.673,18.178,90.759
	C212.176,658.01,171.534,666.151,141.453,646.11z"/>
</svg>
